<svg xmlns="http://www.w3.org/2000/svg" width="1156" height="826" viewBox="0 0 1156 826" font-family="'DejaVu Sans Mono','Menlo','Consolas','Cascadia Code',monospace" font-size="15.5">
<rect x="0" y="0" width="1156" height="826" rx="10" fill="#0c0e14"/>
<rect x="0" y="0" width="1156" height="30" rx="10" fill="#1b1f2a"/>
<rect x="0" y="20" width="1156" height="10" fill="#1b1f2a"/>
<circle cx="18" cy="15" r="6" fill="#ff5f56"/>
<circle cx="38" cy="15" r="6" fill="#ffbd2e"/>
<circle cx="58" cy="15" r="6" fill="#27c93f"/>
<text x="578" y="19" fill="#8a93a6" font-size="12.5" text-anchor="middle">wcup — knockout bracket</text>
<rect x="18.00" y="48.00" width="27.99" height="19.00" fill="#141821"/>
<rect x="55.32" y="48.00" width="1082.40" height="19.00" fill="#141821"/>
<rect x="18.00" y="67.00" width="307.92" height="19.00" fill="#141821"/>
<rect x="325.92" y="67.00" width="102.64" height="19.00" fill="#58c682"/>
<rect x="428.56" y="67.00" width="709.16" height="19.00" fill="#141821"/>
<rect x="64.66" y="143.00" width="167.96" height="19.00" fill="#141821"/>
<rect x="64.66" y="162.00" width="167.96" height="19.00" fill="#141821"/>
<rect x="316.59" y="181.00" width="167.96" height="19.00" fill="#141821"/>
<rect x="316.59" y="200.00" width="167.96" height="19.00" fill="#141821"/>
<rect x="64.66" y="219.00" width="167.96" height="19.00" fill="#141821"/>
<rect x="64.66" y="238.00" width="167.96" height="19.00" fill="#141821"/>
<rect x="568.53" y="257.00" width="167.96" height="19.00" fill="#141821"/>
<rect x="568.53" y="276.00" width="167.96" height="19.00" fill="#141821"/>
<rect x="64.66" y="295.00" width="167.96" height="19.00" fill="#141821"/>
<rect x="64.66" y="314.00" width="167.96" height="19.00" fill="#141821"/>
<rect x="316.59" y="333.00" width="167.96" height="19.00" fill="#141821"/>
<rect x="316.59" y="352.00" width="167.96" height="19.00" fill="#141821"/>
<rect x="64.66" y="371.00" width="167.96" height="19.00" fill="#141821"/>
<rect x="64.66" y="390.00" width="167.96" height="19.00" fill="#141821"/>
<rect x="820.47" y="409.00" width="167.96" height="19.00" fill="#141821"/>
<rect x="820.47" y="428.00" width="167.96" height="19.00" fill="#141821"/>
<rect x="64.66" y="447.00" width="167.96" height="19.00" fill="#141821"/>
<rect x="64.66" y="466.00" width="177.29" height="19.00" fill="#141821"/>
<rect x="316.59" y="485.00" width="167.96" height="19.00" fill="#141821"/>
<rect x="316.59" y="504.00" width="167.96" height="19.00" fill="#141821"/>
<rect x="64.66" y="523.00" width="167.96" height="19.00" fill="#141821"/>
<rect x="64.66" y="542.00" width="177.29" height="19.00" fill="#141821"/>
<rect x="568.53" y="561.00" width="167.96" height="19.00" fill="#141821"/>
<rect x="568.53" y="580.00" width="167.96" height="19.00" fill="#141821"/>
<rect x="64.66" y="599.00" width="177.29" height="19.00" fill="#141821"/>
<rect x="64.66" y="618.00" width="167.96" height="19.00" fill="#141821"/>
<rect x="316.59" y="637.00" width="167.96" height="19.00" fill="#141821"/>
<rect x="316.59" y="656.00" width="167.96" height="19.00" fill="#141821"/>
<rect x="64.66" y="675.00" width="167.96" height="19.00" fill="#141821"/>
<rect x="64.66" y="694.00" width="177.29" height="19.00" fill="#141821"/>
<rect x="1072.40" y="713.00" width="65.32" height="19.00" fill="#141821"/>
<rect x="1072.40" y="732.00" width="65.32" height="19.00" fill="#141821"/>
<rect x="64.66" y="751.00" width="167.96" height="19.00" fill="#141821"/>
<rect x="18.00" y="770.00" width="1119.72" height="19.00" fill="#141821"/>
<rect x="18.00" y="789.00" width="9.33" height="19.00" fill="#141821"/>
<rect x="27.33" y="789.00" width="55.99" height="19.00" fill="#1e2430"/>
<rect x="83.32" y="789.00" width="83.98" height="19.00" fill="#141821"/>
<rect x="167.30" y="789.00" width="27.99" height="19.00" fill="#1e2430"/>
<rect x="195.29" y="789.00" width="65.32" height="19.00" fill="#141821"/>
<rect x="260.61" y="789.00" width="27.99" height="19.00" fill="#1e2430"/>
<rect x="288.60" y="789.00" width="93.31" height="19.00" fill="#141821"/>
<rect x="381.91" y="789.00" width="27.99" height="19.00" fill="#1e2430"/>
<rect x="409.90" y="789.00" width="727.82" height="19.00" fill="#141821"/>
<text x="45.99" y="62.00" fill="#5ad28c" text-anchor="middle">⚽</text>
<text x="64.66" y="62.00" fill="#5ece9b" font-weight="bold">F</text>
<text x="73.99" y="62.00" fill="#60cca3" font-weight="bold">I</text>
<text x="83.32" y="62.00" fill="#62caaa" font-weight="bold">F</text>
<text x="92.65" y="62.00" fill="#64c8b2" font-weight="bold">A</text>
<text x="111.31" y="62.00" fill="#68c4c1" font-weight="bold">W</text>
<text x="120.64" y="62.00" fill="#6ac2c9" font-weight="bold">O</text>
<text x="129.97" y="62.00" fill="#6cc0d1" font-weight="bold">R</text>
<text x="139.30" y="62.00" fill="#6ebed8" font-weight="bold">L</text>
<text x="148.63" y="62.00" fill="#70bce0" font-weight="bold">D</text>
<text x="167.30" y="62.00" fill="#74b8ef" font-weight="bold">C</text>
<text x="176.63" y="62.00" fill="#76b6f7" font-weight="bold">U</text>
<text x="185.96" y="62.00" fill="#78b4ff" font-weight="bold">P</text>
<text x="204.62" y="62.00" fill="#f0c458" font-weight="bold">2026</text>
<text x="251.27" y="62.00" fill="#586074">·</text>
<text x="269.94" y="62.00" fill="#586074">USA</text>
<text x="307.26" y="62.00" fill="#586074">·</text>
<text x="325.92" y="62.00" fill="#586074">CAN</text>
<text x="363.25" y="62.00" fill="#586074">·</text>
<text x="381.91" y="62.00" fill="#586074">MEX</text>
<text x="941.77" y="62.00" fill="#586074">○</text>
<text x="960.43" y="62.00" fill="#586074">no</text>
<text x="988.42" y="62.00" fill="#586074">live</text>
<text x="1044.41" y="62.00" fill="#848ea2">11:37:40</text>
<text x="27.33" y="81.00" fill="#848ea2">1</text>
<text x="45.99" y="81.00" fill="#848ea2">Live</text>
<text x="111.31" y="81.00" fill="#848ea2">2</text>
<text x="129.97" y="81.00" fill="#848ea2">Schedule</text>
<text x="232.61" y="81.00" fill="#848ea2">3</text>
<text x="251.27" y="81.00" fill="#848ea2">Groups</text>
<text x="335.25" y="81.00" fill="#0c0e14" font-weight="bold">4</text>
<text x="353.92" y="81.00" fill="#0c0e14" font-weight="bold">Bracket</text>
<text x="447.23" y="81.00" fill="#848ea2">5</text>
<text x="465.89" y="81.00" fill="#848ea2">Scorers</text>
<text x="979.09" y="81.00" fill="#586074">:help</text>
<text x="1044.41" y="81.00" fill="#586074">·</text>
<text x="1072.40" y="81.00" fill="#586074">q</text>
<text x="1091.07" y="81.00" fill="#586074">quit</text>
<text x="36.66" y="100.00" fill="#848ea2" font-style="italic">Knockout</text>
<text x="120.64" y="100.00" fill="#848ea2" font-style="italic">bracket</text>
<text x="195.29" y="100.00" fill="#848ea2" font-style="italic">·</text>
<text x="213.95" y="100.00" fill="#848ea2" font-style="italic">Round</text>
<text x="269.94" y="100.00" fill="#848ea2" font-style="italic">of</text>
<text x="297.93" y="100.00" fill="#848ea2" font-style="italic">32</text>
<text x="325.92" y="100.00" fill="#848ea2" font-style="italic">→</text>
<text x="344.58" y="100.00" fill="#848ea2" font-style="italic">Final</text>
<text x="83.32" y="119.00" fill="#f0c458" font-weight="bold">Round</text>
<text x="139.30" y="119.00" fill="#f0c458" font-weight="bold">of</text>
<text x="167.30" y="119.00" fill="#f0c458" font-weight="bold">32</text>
<text x="335.25" y="119.00" fill="#f0c458" font-weight="bold">Round</text>
<text x="391.24" y="119.00" fill="#f0c458" font-weight="bold">of</text>
<text x="419.23" y="119.00" fill="#f0c458" font-weight="bold">16</text>
<text x="587.19" y="119.00" fill="#f0c458" font-weight="bold">Quarterfinals</text>
<text x="839.13" y="119.00" fill="#f0c458" font-weight="bold">Semifinals</text>
<text x="1072.40" y="119.00" fill="#586074">0%</text>
<text x="1100.40" y="119.00" fill="#586074">▼</text>
<text x="1109.73" y="119.00" fill="#f0c458" font-weight="bold">nal</text>
<text x="55.32" y="138.00" fill="#343c4e">╭──────────────────╮</text>
<text x="55.32" y="157.00" fill="#343c4e">│</text>
<text x="64.66" y="157.00" fill="#000080">▌</text>
<text x="73.99" y="157.00" fill="#dfe4ee">CPV</text>
<text x="232.61" y="157.00" fill="#343c4e">│────╮</text>
<text x="55.32" y="176.00" fill="#343c4e">│</text>
<text x="64.66" y="176.00" fill="#74acdf">▌</text>
<text x="73.99" y="176.00" fill="#dfe4ee">ARG</text>
<text x="232.61" y="176.00" fill="#343c4e">│</text>
<text x="279.27" y="176.00" fill="#343c4e">│</text>
<text x="307.26" y="176.00" fill="#343c4e">╭──────────────────╮</text>
<text x="55.32" y="195.00" fill="#343c4e">╰──────────────────╯</text>
<text x="279.27" y="195.00" fill="#343c4e">├──│</text>
<text x="316.59" y="195.00" fill="#888888">▌</text>
<text x="325.92" y="195.00" fill="#586074">TBD</text>
<text x="484.55" y="195.00" fill="#343c4e">│────╮</text>
<text x="55.32" y="214.00" fill="#343c4e">╭──────────────────╮</text>
<text x="279.27" y="214.00" fill="#343c4e">│</text>
<text x="307.26" y="214.00" fill="#343c4e">│</text>
<text x="316.59" y="214.00" fill="#888888">▌</text>
<text x="325.92" y="214.00" fill="#586074">TBD</text>
<text x="484.55" y="214.00" fill="#343c4e">│</text>
<text x="531.20" y="214.00" fill="#343c4e">│</text>
<text x="55.32" y="233.00" fill="#343c4e">│</text>
<text x="64.66" y="233.00" fill="#4f9a44">▌</text>
<text x="73.99" y="233.00" fill="#dfe4ee">ALG</text>
<text x="232.61" y="233.00" fill="#343c4e">│────╯</text>
<text x="307.26" y="233.00" fill="#343c4e">╰──────────────────╯</text>
<text x="531.20" y="233.00" fill="#343c4e">│</text>
<text x="55.32" y="252.00" fill="#343c4e">│</text>
<text x="64.66" y="252.00" fill="#ff0000">▌</text>
<text x="73.99" y="252.00" fill="#dfe4ee">SUI</text>
<text x="232.61" y="252.00" fill="#343c4e">│</text>
<text x="531.20" y="252.00" fill="#343c4e">│</text>
<text x="559.20" y="252.00" fill="#343c4e">╭──────────────────╮</text>
<text x="55.32" y="271.00" fill="#343c4e">╰──────────────────╯</text>
<text x="531.20" y="271.00" fill="#343c4e">├──│</text>
<text x="568.53" y="271.00" fill="#888888">▌</text>
<text x="577.86" y="271.00" fill="#586074">TBD</text>
<text x="736.49" y="271.00" fill="#343c4e">│────╮</text>
<text x="55.32" y="290.00" fill="#343c4e">╭──────────────────╮</text>
<text x="531.20" y="290.00" fill="#343c4e">│</text>
<text x="559.20" y="290.00" fill="#343c4e">│</text>
<text x="568.53" y="290.00" fill="#888888">▌</text>
<text x="577.86" y="290.00" fill="#586074">TBD</text>
<text x="736.49" y="290.00" fill="#343c4e">│</text>
<text x="783.14" y="290.00" fill="#343c4e">│</text>
<text x="55.32" y="309.00" fill="#343c4e">│</text>
<text x="64.66" y="309.00" fill="#fbd632">▌</text>
<text x="73.99" y="309.00" fill="#dfe4ee">GHA</text>
<text x="232.61" y="309.00" fill="#343c4e">│────╮</text>
<text x="531.20" y="309.00" fill="#343c4e">│</text>
<text x="559.20" y="309.00" fill="#343c4e">╰──────────────────╯</text>
<text x="783.14" y="309.00" fill="#343c4e">│</text>
<text x="55.32" y="328.00" fill="#343c4e">│</text>
<text x="64.66" y="328.00" fill="#fbd632">▌</text>
<text x="73.99" y="328.00" fill="#dfe4ee">COL</text>
<text x="232.61" y="328.00" fill="#343c4e">│</text>
<text x="279.27" y="328.00" fill="#343c4e">│</text>
<text x="307.26" y="328.00" fill="#343c4e">╭──────────────────╮</text>
<text x="531.20" y="328.00" fill="#343c4e">│</text>
<text x="783.14" y="328.00" fill="#343c4e">│</text>
<text x="55.32" y="347.00" fill="#343c4e">╰──────────────────╯</text>
<text x="279.27" y="347.00" fill="#343c4e">├──│</text>
<text x="316.59" y="347.00" fill="#888888">▌</text>
<text x="325.92" y="347.00" fill="#586074">TBD</text>
<text x="484.55" y="347.00" fill="#343c4e">│────╯</text>
<text x="783.14" y="347.00" fill="#343c4e">│</text>
<text x="55.32" y="366.00" fill="#343c4e">╭──────────────────╮</text>
<text x="279.27" y="366.00" fill="#343c4e">│</text>
<text x="307.26" y="366.00" fill="#343c4e">│</text>
<text x="316.59" y="366.00" fill="#888888">▌</text>
<text x="325.92" y="366.00" fill="#586074">TBD</text>
<text x="484.55" y="366.00" fill="#343c4e">│</text>
<text x="783.14" y="366.00" fill="#343c4e">│</text>
<text x="55.32" y="385.00" fill="#343c4e">│</text>
<text x="64.66" y="385.00" fill="#d20300">▌</text>
<text x="73.99" y="385.00" fill="#dfe4ee">EGY</text>
<text x="232.61" y="385.00" fill="#343c4e">│────╯</text>
<text x="307.26" y="385.00" fill="#343c4e">╰──────────────────╯</text>
<text x="783.14" y="385.00" fill="#343c4e">│</text>
<text x="55.32" y="404.00" fill="#343c4e">│</text>
<text x="64.66" y="404.00" fill="#ffcd00">▌</text>
<text x="73.99" y="404.00" fill="#dfe4ee">AUS</text>
<text x="232.61" y="404.00" fill="#343c4e">│</text>
<text x="783.14" y="404.00" fill="#343c4e">│</text>
<text x="811.13" y="404.00" fill="#343c4e">╭──────────────────╮</text>
<text x="55.32" y="423.00" fill="#343c4e">╰──────────────────╯</text>
<text x="783.14" y="423.00" fill="#343c4e">├──│</text>
<text x="820.47" y="423.00" fill="#888888">▌</text>
<text x="829.80" y="423.00" fill="#586074">TBD</text>
<text x="988.42" y="423.00" fill="#343c4e">│────╮</text>
<text x="55.32" y="442.00" fill="#343c4e">╭──────────────────╮</text>
<text x="783.14" y="442.00" fill="#343c4e">│</text>
<text x="811.13" y="442.00" fill="#343c4e">│</text>
<text x="820.47" y="442.00" fill="#888888">▌</text>
<text x="829.80" y="442.00" fill="#586074">TBD</text>
<text x="988.42" y="442.00" fill="#343c4e">│</text>
<text x="1035.08" y="442.00" fill="#343c4e">│</text>
<text x="55.32" y="461.00" fill="#343c4e">│</text>
<text x="64.66" y="461.00" fill="#418fde">▌</text>
<text x="73.99" y="461.00" fill="#dfe4ee">COD</text>
<text x="223.28" y="461.00" fill="#dfe4ee">1</text>
<text x="232.61" y="461.00" fill="#343c4e">│────╮</text>
<text x="783.14" y="461.00" fill="#343c4e">│</text>
<text x="811.13" y="461.00" fill="#343c4e">╰──────────────────╯</text>
<text x="1035.08" y="461.00" fill="#343c4e">│</text>
<text x="55.32" y="480.00" fill="#343c4e">│</text>
<text x="64.66" y="480.00" fill="#888888">▌</text>
<text x="73.99" y="480.00" fill="#f5f7fc" font-weight="bold">ENG</text>
<text x="223.28" y="480.00" fill="#f0c458" font-weight="bold">2</text>
<text x="232.61" y="480.00" fill="#f0c458">‹</text>
<text x="279.27" y="480.00" fill="#343c4e">│</text>
<text x="307.26" y="480.00" fill="#343c4e">╭──────────────────╮</text>
<text x="783.14" y="480.00" fill="#343c4e">│</text>
<text x="1035.08" y="480.00" fill="#343c4e">│</text>
<text x="55.32" y="499.00" fill="#343c4e">╰──────────────────╯</text>
<text x="279.27" y="499.00" fill="#343c4e">├──│</text>
<text x="316.59" y="499.00" fill="#888888">▌</text>
<text x="325.92" y="499.00" fill="#dfe4ee">ENG</text>
<text x="484.55" y="499.00" fill="#343c4e">│────╮</text>
<text x="783.14" y="499.00" fill="#343c4e">│</text>
<text x="1035.08" y="499.00" fill="#343c4e">│</text>
<text x="55.32" y="518.00" fill="#343c4e">╭──────────────────╮</text>
<text x="279.27" y="518.00" fill="#343c4e">│</text>
<text x="307.26" y="518.00" fill="#343c4e">│</text>
<text x="316.59" y="518.00" fill="#006847">▌</text>
<text x="325.92" y="518.00" fill="#dfe4ee">MEX</text>
<text x="484.55" y="518.00" fill="#343c4e">│</text>
<text x="531.20" y="518.00" fill="#343c4e">│</text>
<text x="783.14" y="518.00" fill="#343c4e">│</text>
<text x="1035.08" y="518.00" fill="#343c4e">│</text>
<text x="55.32" y="537.00" fill="#343c4e">│</text>
<text x="64.66" y="537.00" fill="#ffdd00">▌</text>
<text x="73.99" y="537.00" fill="#dfe4ee">ECU</text>
<text x="223.28" y="537.00" fill="#dfe4ee">0</text>
<text x="232.61" y="537.00" fill="#343c4e">│────╯</text>
<text x="307.26" y="537.00" fill="#343c4e">╰──────────────────╯</text>
<text x="531.20" y="537.00" fill="#343c4e">│</text>
<text x="783.14" y="537.00" fill="#343c4e">│</text>
<text x="1035.08" y="537.00" fill="#343c4e">│</text>
<text x="55.32" y="556.00" fill="#343c4e">│</text>
<text x="64.66" y="556.00" fill="#006847">▌</text>
<text x="73.99" y="556.00" fill="#f5f7fc" font-weight="bold">MEX</text>
<text x="223.28" y="556.00" fill="#f0c458" font-weight="bold">2</text>
<text x="232.61" y="556.00" fill="#f0c458">‹</text>
<text x="531.20" y="556.00" fill="#343c4e">│</text>
<text x="559.20" y="556.00" fill="#343c4e">╭──────────────────╮</text>
<text x="783.14" y="556.00" fill="#343c4e">│</text>
<text x="1035.08" y="556.00" fill="#343c4e">│</text>
<text x="55.32" y="575.00" fill="#343c4e">╰──────────────────╯</text>
<text x="531.20" y="575.00" fill="#343c4e">├──│</text>
<text x="568.53" y="575.00" fill="#888888">▌</text>
<text x="577.86" y="575.00" fill="#586074">TBD</text>
<text x="736.49" y="575.00" fill="#343c4e">│────╯</text>
<text x="1035.08" y="575.00" fill="#343c4e">│</text>
<text x="55.32" y="594.00" fill="#343c4e">╭──────────────────╮</text>
<text x="531.20" y="594.00" fill="#343c4e">│</text>
<text x="559.20" y="594.00" fill="#343c4e">│</text>
<text x="568.53" y="594.00" fill="#888888">▌</text>
<text x="577.86" y="594.00" fill="#586074">TBD</text>
<text x="736.49" y="594.00" fill="#343c4e">│</text>
<text x="1035.08" y="594.00" fill="#343c4e">│</text>
<text x="55.32" y="613.00" fill="#343c4e">│</text>
<text x="64.66" y="613.00" fill="#c8102e">▌</text>
<text x="73.99" y="613.00" fill="#f5f7fc" font-weight="bold">NOR</text>
<text x="223.28" y="613.00" fill="#f0c458" font-weight="bold">2</text>
<text x="232.61" y="613.00" fill="#f0c458">‹</text>
<text x="241.94" y="613.00" fill="#343c4e">────╮</text>
<text x="531.20" y="613.00" fill="#343c4e">│</text>
<text x="559.20" y="613.00" fill="#343c4e">╰──────────────────╯</text>
<text x="1035.08" y="613.00" fill="#343c4e">│</text>
<text x="55.32" y="632.00" fill="#343c4e">│</text>
<text x="64.66" y="632.00" fill="#ff8200">▌</text>
<text x="73.99" y="632.00" fill="#dfe4ee">CIV</text>
<text x="223.28" y="632.00" fill="#dfe4ee">1</text>
<text x="232.61" y="632.00" fill="#343c4e">│</text>
<text x="279.27" y="632.00" fill="#343c4e">│</text>
<text x="307.26" y="632.00" fill="#343c4e">╭──────────────────╮</text>
<text x="531.20" y="632.00" fill="#343c4e">│</text>
<text x="1035.08" y="632.00" fill="#343c4e">│</text>
<text x="55.32" y="651.00" fill="#343c4e">╰──────────────────╯</text>
<text x="279.27" y="651.00" fill="#343c4e">├──│</text>
<text x="316.59" y="651.00" fill="#c8102e">▌</text>
<text x="325.92" y="651.00" fill="#dfe4ee">NOR</text>
<text x="484.55" y="651.00" fill="#343c4e">│────╯</text>
<text x="1035.08" y="651.00" fill="#343c4e">│</text>
<text x="55.32" y="670.00" fill="#343c4e">╭──────────────────╮</text>
<text x="279.27" y="670.00" fill="#343c4e">│</text>
<text x="307.26" y="670.00" fill="#343c4e">│</text>
<text x="316.59" y="670.00" fill="#fee000">▌</text>
<text x="325.92" y="670.00" fill="#dfe4ee">BRA</text>
<text x="484.55" y="670.00" fill="#343c4e">│</text>
<text x="1035.08" y="670.00" fill="#343c4e">│</text>
<text x="55.32" y="689.00" fill="#343c4e">│</text>
<text x="64.66" y="689.00" fill="#000555">▌</text>
<text x="73.99" y="689.00" fill="#dfe4ee">JPN</text>
<text x="223.28" y="689.00" fill="#dfe4ee">1</text>
<text x="232.61" y="689.00" fill="#343c4e">│────╯</text>
<text x="307.26" y="689.00" fill="#343c4e">╰──────────────────╯</text>
<text x="1035.08" y="689.00" fill="#343c4e">│</text>
<text x="55.32" y="708.00" fill="#343c4e">│</text>
<text x="64.66" y="708.00" fill="#fee000">▌</text>
<text x="73.99" y="708.00" fill="#f5f7fc" font-weight="bold">BRA</text>
<text x="223.28" y="708.00" fill="#f0c458" font-weight="bold">2</text>
<text x="232.61" y="708.00" fill="#f0c458">‹</text>
<text x="1035.08" y="708.00" fill="#343c4e">│</text>
<text x="1063.07" y="708.00" fill="#343c4e">╭───────</text>
<text x="55.32" y="727.00" fill="#343c4e">╰──────────────────╯</text>
<text x="1035.08" y="727.00" fill="#343c4e">├──│</text>
<text x="1072.40" y="727.00" fill="#888888">▌</text>
<text x="1081.73" y="727.00" fill="#586074">TBD</text>
<text x="55.32" y="746.00" fill="#343c4e">╭──────────────────╮</text>
<text x="1035.08" y="746.00" fill="#343c4e">│</text>
<text x="1063.07" y="746.00" fill="#343c4e">│</text>
<text x="1072.40" y="746.00" fill="#888888">▌</text>
<text x="1081.73" y="746.00" fill="#586074">TBD</text>
<text x="55.32" y="765.00" fill="#343c4e">│</text>
<text x="64.66" y="765.00" fill="#112855">▌</text>
<text x="73.99" y="765.00" fill="#dfe4ee">BIH</text>
<text x="232.61" y="765.00" fill="#343c4e">│────╮</text>
<text x="1035.08" y="765.00" fill="#343c4e">│</text>
<text x="1063.07" y="765.00" fill="#343c4e">╰───────</text>
<text x="27.33" y="784.00" fill="#586074">updated</text>
<text x="101.98" y="784.00" fill="#586074">11:37:40</text>
<text x="36.66" y="803.00" fill="#f0c458" font-weight="bold">←→↑↓</text>
<text x="92.65" y="803.00" fill="#848ea2">scroll</text>
<text x="176.63" y="803.00" fill="#f0c458" font-weight="bold">⇥</text>
<text x="204.62" y="803.00" fill="#848ea2">view</text>
<text x="269.94" y="803.00" fill="#f0c458" font-weight="bold">:</text>
<text x="297.93" y="803.00" fill="#848ea2">command</text>
<text x="391.24" y="803.00" fill="#f0c458" font-weight="bold">q</text>
<text x="419.23" y="803.00" fill="#848ea2">quit</text>
<text x="811.13" y="803.00" fill="#586074">next:</text>
<text x="867.12" y="803.00" fill="#586074">SEN</text>
<text x="904.44" y="803.00" fill="#586074">v</text>
<text x="923.11" y="803.00" fill="#586074">BEL</text>
<text x="960.43" y="803.00" fill="#586074">·</text>
<text x="979.09" y="803.00" fill="#586074">kickoff</text>
<text x="1053.74" y="803.00" fill="#586074">in</text>
<text x="1081.73" y="803.00" fill="#586074">1h22m</text>
</svg>