<svg xmlns="http://www.w3.org/2000/svg" width="1156" height="826" viewBox="0 0 1156 826" font-family="'DejaVu Sans Mono','Menlo','Consolas','Cascadia Code',monospace" font-size="15.5">
<rect x="0" y="0" width="1156" height="826" rx="10" fill="#0c0e14"/>
<rect x="0" y="0" width="1156" height="30" rx="10" fill="#1b1f2a"/>
<rect x="0" y="20" width="1156" height="10" fill="#1b1f2a"/>
<circle cx="18" cy="15" r="6" fill="#ff5f56"/>
<circle cx="38" cy="15" r="6" fill="#ffbd2e"/>
<circle cx="58" cy="15" r="6" fill="#27c93f"/>
<text x="578" y="19" fill="#8a93a6" font-size="12.5" text-anchor="middle">wcup — live scores</text>
<rect x="18.00" y="48.00" width="27.99" height="19.00" fill="#141821"/>
<rect x="55.32" y="48.00" width="1082.40" height="19.00" fill="#141821"/>
<rect x="18.00" y="67.00" width="74.65" height="19.00" fill="#58c682"/>
<rect x="92.65" y="67.00" width="1045.07" height="19.00" fill="#141821"/>
<rect x="232.61" y="105.00" width="251.94" height="19.00" fill="#1e2430"/>
<rect x="755.15" y="105.00" width="167.96" height="19.00" fill="#1e2430"/>
<rect x="223.28" y="124.00" width="709.16" height="19.00" fill="#1e2430"/>
<rect x="223.28" y="143.00" width="709.16" height="19.00" fill="#1e2430"/>
<rect x="232.61" y="200.00" width="279.93" height="19.00" fill="#141821"/>
<rect x="755.15" y="200.00" width="167.96" height="19.00" fill="#141821"/>
<rect x="223.28" y="219.00" width="709.16" height="19.00" fill="#141821"/>
<rect x="223.28" y="238.00" width="709.16" height="19.00" fill="#141821"/>
<rect x="232.61" y="295.00" width="345.25" height="19.00" fill="#141821"/>
<rect x="904.44" y="295.00" width="18.66" height="19.00" fill="#141821"/>
<rect x="223.28" y="314.00" width="709.16" height="19.00" fill="#141821"/>
<rect x="223.28" y="333.00" width="709.16" height="19.00" fill="#141821"/>
<rect x="18.00" y="770.00" width="1119.72" height="19.00" fill="#141821"/>
<rect x="18.00" y="789.00" width="9.33" height="19.00" fill="#141821"/>
<rect x="27.33" y="789.00" width="37.32" height="19.00" fill="#1e2430"/>
<rect x="64.66" y="789.00" width="65.32" height="19.00" fill="#141821"/>
<rect x="129.97" y="789.00" width="27.99" height="19.00" fill="#1e2430"/>
<rect x="157.97" y="789.00" width="65.32" height="19.00" fill="#141821"/>
<rect x="223.28" y="789.00" width="27.99" height="19.00" fill="#1e2430"/>
<rect x="251.27" y="789.00" width="65.32" height="19.00" fill="#141821"/>
<rect x="316.59" y="789.00" width="27.99" height="19.00" fill="#1e2430"/>
<rect x="344.58" y="789.00" width="93.31" height="19.00" fill="#141821"/>
<rect x="437.89" y="789.00" width="27.99" height="19.00" fill="#1e2430"/>
<rect x="465.89" y="789.00" width="671.83" height="19.00" fill="#141821"/>
<text x="45.99" y="62.00" fill="#5ad28c" text-anchor="middle">⚽</text>
<text x="64.66" y="62.00" fill="#5ece9b" font-weight="bold">F</text>
<text x="73.99" y="62.00" fill="#60cca3" font-weight="bold">I</text>
<text x="83.32" y="62.00" fill="#62caaa" font-weight="bold">F</text>
<text x="92.65" y="62.00" fill="#64c8b2" font-weight="bold">A</text>
<text x="111.31" y="62.00" fill="#68c4c1" font-weight="bold">W</text>
<text x="120.64" y="62.00" fill="#6ac2c9" font-weight="bold">O</text>
<text x="129.97" y="62.00" fill="#6cc0d1" font-weight="bold">R</text>
<text x="139.30" y="62.00" fill="#6ebed8" font-weight="bold">L</text>
<text x="148.63" y="62.00" fill="#70bce0" font-weight="bold">D</text>
<text x="167.30" y="62.00" fill="#74b8ef" font-weight="bold">C</text>
<text x="176.63" y="62.00" fill="#76b6f7" font-weight="bold">U</text>
<text x="185.96" y="62.00" fill="#78b4ff" font-weight="bold">P</text>
<text x="204.62" y="62.00" fill="#f0c458" font-weight="bold">2026</text>
<text x="251.27" y="62.00" fill="#586074">·</text>
<text x="269.94" y="62.00" fill="#586074">USA</text>
<text x="307.26" y="62.00" fill="#586074">·</text>
<text x="325.92" y="62.00" fill="#586074">CAN</text>
<text x="363.25" y="62.00" fill="#586074">·</text>
<text x="381.91" y="62.00" fill="#586074">MEX</text>
<text x="941.77" y="62.00" fill="#586074">○</text>
<text x="960.43" y="62.00" fill="#586074">no</text>
<text x="988.42" y="62.00" fill="#586074">live</text>
<text x="1044.41" y="62.00" fill="#848ea2">11:37:39</text>
<text x="27.33" y="81.00" fill="#0c0e14" font-weight="bold">1</text>
<text x="45.99" y="81.00" fill="#0c0e14" font-weight="bold">Live</text>
<text x="111.31" y="81.00" fill="#848ea2">2</text>
<text x="129.97" y="81.00" fill="#848ea2">Schedule</text>
<text x="232.61" y="81.00" fill="#848ea2">3</text>
<text x="251.27" y="81.00" fill="#848ea2">Groups</text>
<text x="335.25" y="81.00" fill="#848ea2">4</text>
<text x="353.92" y="81.00" fill="#848ea2">Bracket</text>
<text x="447.23" y="81.00" fill="#848ea2">5</text>
<text x="465.89" y="81.00" fill="#848ea2">Scorers</text>
<text x="979.09" y="81.00" fill="#586074">:help</text>
<text x="1044.41" y="81.00" fill="#586074">·</text>
<text x="1072.40" y="81.00" fill="#586074">q</text>
<text x="1091.07" y="81.00" fill="#586074">quit</text>
<text x="36.66" y="100.00" fill="#848ea2" font-style="italic">Today</text>
<text x="92.65" y="100.00" fill="#848ea2" font-style="italic">·</text>
<text x="111.31" y="100.00" fill="#848ea2" font-style="italic">Round</text>
<text x="167.30" y="100.00" fill="#848ea2" font-style="italic">of</text>
<text x="195.29" y="100.00" fill="#848ea2" font-style="italic">32</text>
<text x="223.28" y="100.00" fill="#848ea2" font-style="italic">·</text>
<text x="241.94" y="100.00" fill="#848ea2" font-style="italic">3</text>
<text x="260.61" y="100.00" fill="#848ea2" font-style="italic">fixtures</text>
<text x="344.58" y="100.00" fill="#848ea2" font-style="italic">·</text>
<text x="363.25" y="100.00" fill="#848ea2" font-style="italic">0</text>
<text x="381.91" y="100.00" fill="#848ea2" font-style="italic">live</text>
<text x="213.95" y="119.00" fill="#f0c458" font-weight="bold">╭─</text>
<text x="241.94" y="119.00" fill="#848ea2">Round</text>
<text x="297.93" y="119.00" fill="#848ea2">of</text>
<text x="325.92" y="119.00" fill="#848ea2">32</text>
<text x="353.92" y="119.00" fill="#848ea2">·</text>
<text x="372.58" y="119.00" fill="#848ea2">Lumen</text>
<text x="428.56" y="119.00" fill="#848ea2">Field</text>
<text x="484.55" y="119.00" fill="#f0c458" font-weight="bold">─────────────────────────────</text>
<text x="755.15" y="119.00" fill="#78b4ff">Wed</text>
<text x="792.47" y="119.00" fill="#78b4ff">01</text>
<text x="820.47" y="119.00" fill="#78b4ff">Jul</text>
<text x="857.79" y="119.00" fill="#78b4ff">·</text>
<text x="876.45" y="119.00" fill="#78b4ff">13:00</text>
<text x="923.11" y="119.00" fill="#f0c458" font-weight="bold">─╮</text>
<text x="213.95" y="138.00" fill="#f0c458" font-weight="bold">▸</text>
<text x="232.61" y="138.00" fill="#888888">●</text>
<text x="251.27" y="138.00" fill="#dfe4ee">Senegal</text>
<text x="521.87" y="138.00" fill="#586074">form</text>
<text x="568.53" y="138.00" fill="#586074">WLLDL</text>
<text x="932.44" y="138.00" fill="#f0c458" font-weight="bold">│</text>
<text x="213.95" y="157.00" fill="#f0c458" font-weight="bold">▸</text>
<text x="232.61" y="157.00" fill="#e30613">●</text>
<text x="251.27" y="157.00" fill="#dfe4ee">Belgium</text>
<text x="521.87" y="157.00" fill="#586074">form</text>
<text x="568.53" y="157.00" fill="#586074">WDDWW</text>
<text x="932.44" y="157.00" fill="#f0c458" font-weight="bold">│</text>
<text x="213.95" y="176.00" fill="#f0c458" font-weight="bold">╰────────────────────────────────────────────────────────────────────────────╯</text>
<text x="213.95" y="214.00" fill="#78b4ff">╭─</text>
<text x="241.94" y="214.00" fill="#848ea2">Round</text>
<text x="297.93" y="214.00" fill="#848ea2">of</text>
<text x="325.92" y="214.00" fill="#848ea2">32</text>
<text x="353.92" y="214.00" fill="#848ea2">·</text>
<text x="372.58" y="214.00" fill="#848ea2">Levi&#x27;s</text>
<text x="437.89" y="214.00" fill="#848ea2">Stadium</text>
<text x="512.54" y="214.00" fill="#78b4ff">──────────────────────────Wed</text>
<text x="792.47" y="214.00" fill="#78b4ff">01</text>
<text x="820.47" y="214.00" fill="#78b4ff">Jul</text>
<text x="857.79" y="214.00" fill="#78b4ff">·</text>
<text x="876.45" y="214.00" fill="#78b4ff">17:00─╮</text>
<text x="213.95" y="233.00" fill="#78b4ff">│</text>
<text x="232.61" y="233.00" fill="#112855">●</text>
<text x="251.27" y="233.00" fill="#dfe4ee">Bosnia-Herzegovina</text>
<text x="521.87" y="233.00" fill="#586074">form</text>
<text x="568.53" y="233.00" fill="#586074">WLDDD</text>
<text x="932.44" y="233.00" fill="#78b4ff">│</text>
<text x="213.95" y="252.00" fill="#78b4ff">│</text>
<text x="232.61" y="252.00" fill="#d42339">●</text>
<text x="251.27" y="252.00" fill="#dfe4ee">United</text>
<text x="316.59" y="252.00" fill="#dfe4ee">States</text>
<text x="521.87" y="252.00" fill="#586074">form</text>
<text x="568.53" y="252.00" fill="#586074">LWWLW</text>
<text x="932.44" y="252.00" fill="#78b4ff">│</text>
<text x="213.95" y="271.00" fill="#78b4ff">╰────────────────────────────────────────────────────────────────────────────╯</text>
<text x="213.95" y="309.00" fill="#343c4e">╭─</text>
<text x="241.94" y="309.00" fill="#848ea2">Round</text>
<text x="297.93" y="309.00" fill="#848ea2">of</text>
<text x="325.92" y="309.00" fill="#848ea2">32</text>
<text x="353.92" y="309.00" fill="#848ea2">·</text>
<text x="372.58" y="309.00" fill="#848ea2">Mercedes-Benz</text>
<text x="503.21" y="309.00" fill="#848ea2">Stadium</text>
<text x="577.86" y="309.00" fill="#343c4e">───────────────────────────────────</text>
<text x="904.44" y="309.00" fill="#848ea2" font-weight="bold">FT</text>
<text x="923.11" y="309.00" fill="#343c4e">─╮</text>
<text x="213.95" y="328.00" fill="#343c4e">│</text>
<text x="232.61" y="328.00" fill="#418fde">●</text>
<text x="251.27" y="328.00" fill="#dfe4ee">Congo</text>
<text x="307.26" y="328.00" fill="#dfe4ee">DR</text>
<text x="493.88" y="328.00" fill="#dfe4ee" font-weight="bold">1</text>
<text x="521.87" y="328.00" fill="#586074">Cipenga</text>
<text x="596.52" y="328.00" fill="#586074">7&#x27;</text>
<text x="932.44" y="328.00" fill="#343c4e">│</text>
<text x="213.95" y="347.00" fill="#343c4e">│</text>
<text x="232.61" y="347.00" fill="#888888">●</text>
<text x="251.27" y="347.00" fill="#f5f7fc" font-weight="bold">England</text>
<text x="493.88" y="347.00" fill="#f0c458" font-weight="bold">2</text>
<text x="521.87" y="347.00" fill="#586074">Kane</text>
<text x="568.53" y="347.00" fill="#586074">75&#x27;</text>
<text x="605.85" y="347.00" fill="#586074">·</text>
<text x="624.51" y="347.00" fill="#586074">Kane</text>
<text x="671.17" y="347.00" fill="#586074">86&#x27;</text>
<text x="932.44" y="347.00" fill="#343c4e">│</text>
<text x="213.95" y="366.00" fill="#343c4e">╰────────────────────────────────────────────────────────────────────────────╯</text>
<text x="27.33" y="784.00" fill="#586074">updated</text>
<text x="101.98" y="784.00" fill="#586074">11:37:39</text>
<text x="36.66" y="803.00" fill="#f0c458" font-weight="bold">↑↓</text>
<text x="73.99" y="803.00" fill="#848ea2">move</text>
<text x="139.30" y="803.00" fill="#f0c458" font-weight="bold">↵</text>
<text x="167.30" y="803.00" fill="#848ea2">open</text>
<text x="232.61" y="803.00" fill="#f0c458" font-weight="bold">⇥</text>
<text x="260.61" y="803.00" fill="#848ea2">view</text>
<text x="325.92" y="803.00" fill="#f0c458" font-weight="bold">:</text>
<text x="353.92" y="803.00" fill="#848ea2">command</text>
<text x="447.23" y="803.00" fill="#f0c458" font-weight="bold">r</text>
<text x="475.22" y="803.00" fill="#848ea2">refresh</text>
<text x="811.13" y="803.00" fill="#586074">next:</text>
<text x="867.12" y="803.00" fill="#586074">SEN</text>
<text x="904.44" y="803.00" fill="#586074">v</text>
<text x="923.11" y="803.00" fill="#586074">BEL</text>
<text x="960.43" y="803.00" fill="#586074">·</text>
<text x="979.09" y="803.00" fill="#586074">kickoff</text>
<text x="1053.74" y="803.00" fill="#586074">in</text>
<text x="1081.73" y="803.00" fill="#586074">1h22m</text>
</svg>