<svg xmlns="http://www.w3.org/2000/svg" width="1156" height="826" viewBox="0 0 1156 826" font-family="'DejaVu Sans Mono','Menlo','Consolas','Cascadia Code',monospace" font-size="15.5">
<rect x="0" y="0" width="1156" height="826" rx="10" fill="#0c0e14"/>
<rect x="0" y="0" width="1156" height="30" rx="10" fill="#1b1f2a"/>
<rect x="0" y="20" width="1156" height="10" fill="#1b1f2a"/>
<circle cx="18" cy="15" r="6" fill="#ff5f56"/>
<circle cx="38" cy="15" r="6" fill="#ffbd2e"/>
<circle cx="58" cy="15" r="6" fill="#27c93f"/>
<text x="578" y="19" fill="#8a93a6" font-size="12.5" text-anchor="middle">wcup — match centre · stats</text>
<rect x="18.00" y="48.00" width="27.99" height="19.00" fill="#141821"/>
<rect x="55.32" y="48.00" width="1082.40" height="19.00" fill="#141821"/>
<rect x="18.00" y="67.00" width="1119.72" height="19.00" fill="#141821"/>
<rect x="18.00" y="105.00" width="1119.72" height="19.00" fill="#141821"/>
<rect x="18.00" y="124.00" width="1119.72" height="19.00" fill="#141821"/>
<rect x="18.00" y="143.00" width="1119.72" height="19.00" fill="#141821"/>
<rect x="36.66" y="181.00" width="83.98" height="19.00" fill="#141821"/>
<rect x="129.97" y="181.00" width="93.31" height="19.00" fill="#141821"/>
<rect x="232.61" y="181.00" width="65.32" height="19.00" fill="#58c682"/>
<rect x="148.63" y="276.00" width="858.45" height="19.00" fill="#141821"/>
<rect x="148.63" y="314.00" width="858.45" height="19.00" fill="#141821"/>
<rect x="148.63" y="352.00" width="858.45" height="19.00" fill="#141821"/>
<rect x="148.63" y="390.00" width="858.45" height="19.00" fill="#141821"/>
<rect x="148.63" y="428.00" width="858.45" height="19.00" fill="#141821"/>
<rect x="148.63" y="466.00" width="858.45" height="19.00" fill="#141821"/>
<rect x="148.63" y="504.00" width="858.45" height="19.00" fill="#141821"/>
<rect x="148.63" y="542.00" width="858.45" height="19.00" fill="#141821"/>
<rect x="148.63" y="580.00" width="858.45" height="19.00" fill="#141821"/>
<rect x="18.00" y="770.00" width="1119.72" height="19.00" fill="#141821"/>
<rect x="18.00" y="789.00" width="9.33" height="19.00" fill="#141821"/>
<rect x="27.33" y="789.00" width="37.32" height="19.00" fill="#1e2430"/>
<rect x="64.66" y="789.00" width="65.32" height="19.00" fill="#141821"/>
<rect x="129.97" y="789.00" width="37.32" height="19.00" fill="#1e2430"/>
<rect x="167.30" y="789.00" width="83.98" height="19.00" fill="#141821"/>
<rect x="251.27" y="789.00" width="46.66" height="19.00" fill="#1e2430"/>
<rect x="297.93" y="789.00" width="65.32" height="19.00" fill="#141821"/>
<rect x="363.25" y="789.00" width="27.99" height="19.00" fill="#1e2430"/>
<rect x="391.24" y="789.00" width="746.48" height="19.00" fill="#141821"/>
<text x="45.99" y="62.00" fill="#5ad28c" text-anchor="middle">⚽</text>
<text x="64.66" y="62.00" fill="#5ece9b" font-weight="bold">F</text>
<text x="73.99" y="62.00" fill="#60cca3" font-weight="bold">I</text>
<text x="83.32" y="62.00" fill="#62caaa" font-weight="bold">F</text>
<text x="92.65" y="62.00" fill="#64c8b2" font-weight="bold">A</text>
<text x="111.31" y="62.00" fill="#68c4c1" font-weight="bold">W</text>
<text x="120.64" y="62.00" fill="#6ac2c9" font-weight="bold">O</text>
<text x="129.97" y="62.00" fill="#6cc0d1" font-weight="bold">R</text>
<text x="139.30" y="62.00" fill="#6ebed8" font-weight="bold">L</text>
<text x="148.63" y="62.00" fill="#70bce0" font-weight="bold">D</text>
<text x="167.30" y="62.00" fill="#74b8ef" font-weight="bold">C</text>
<text x="176.63" y="62.00" fill="#76b6f7" font-weight="bold">U</text>
<text x="185.96" y="62.00" fill="#78b4ff" font-weight="bold">P</text>
<text x="204.62" y="62.00" fill="#f0c458" font-weight="bold">2026</text>
<text x="251.27" y="62.00" fill="#586074">·</text>
<text x="269.94" y="62.00" fill="#586074">USA</text>
<text x="307.26" y="62.00" fill="#586074">·</text>
<text x="325.92" y="62.00" fill="#586074">CAN</text>
<text x="363.25" y="62.00" fill="#586074">·</text>
<text x="381.91" y="62.00" fill="#586074">MEX</text>
<text x="941.77" y="62.00" fill="#586074">○</text>
<text x="960.43" y="62.00" fill="#586074">no</text>
<text x="988.42" y="62.00" fill="#586074">live</text>
<text x="1044.41" y="62.00" fill="#848ea2">11:37:43</text>
<text x="27.33" y="81.00" fill="#848ea2">1</text>
<text x="45.99" y="81.00" fill="#848ea2">Live</text>
<text x="111.31" y="81.00" fill="#848ea2">2</text>
<text x="129.97" y="81.00" fill="#848ea2">Schedule</text>
<text x="232.61" y="81.00" fill="#848ea2">3</text>
<text x="251.27" y="81.00" fill="#848ea2">Groups</text>
<text x="335.25" y="81.00" fill="#848ea2">4</text>
<text x="353.92" y="81.00" fill="#848ea2">Bracket</text>
<text x="447.23" y="81.00" fill="#848ea2">5</text>
<text x="465.89" y="81.00" fill="#848ea2">Scorers</text>
<text x="979.09" y="81.00" fill="#586074">:help</text>
<text x="1044.41" y="81.00" fill="#586074">·</text>
<text x="1072.40" y="81.00" fill="#586074">q</text>
<text x="1091.07" y="81.00" fill="#586074">quit</text>
<text x="36.66" y="100.00" fill="#848ea2" font-style="italic">Match</text>
<text x="92.65" y="100.00" fill="#848ea2" font-style="italic">centre</text>
<text x="36.66" y="119.00" fill="#848ea2">Round</text>
<text x="92.65" y="119.00" fill="#848ea2">of</text>
<text x="120.64" y="119.00" fill="#848ea2">32</text>
<text x="157.97" y="119.00" fill="#848ea2">·</text>
<text x="185.96" y="119.00" fill="#848ea2">Mercedes-Benz</text>
<text x="316.59" y="119.00" fill="#848ea2">Stadium</text>
<text x="1100.40" y="119.00" fill="#848ea2" font-weight="bold">FT</text>
<text x="437.89" y="138.00" fill="#418fde">●</text>
<text x="456.56" y="138.00" fill="#f5f7fc" font-weight="bold">Congo</text>
<text x="512.54" y="138.00" fill="#f5f7fc" font-weight="bold">DR</text>
<text x="568.53" y="138.00" fill="#f0c458" font-weight="bold">1</text>
<text x="596.52" y="138.00" fill="#f0c458" font-weight="bold">-</text>
<text x="624.51" y="138.00" fill="#f0c458" font-weight="bold">2</text>
<text x="671.17" y="138.00" fill="#f5f7fc" font-weight="bold">England</text>
<text x="755.15" y="138.00" fill="#888888">●</text>
<text x="45.99" y="195.00" fill="#848ea2">Lineups</text>
<text x="139.30" y="195.00" fill="#848ea2">Timeline</text>
<text x="241.94" y="195.00" fill="#0c0e14" font-weight="bold">Stats</text>
<text x="988.42" y="195.00" fill="#586074">←→</text>
<text x="1016.42" y="195.00" fill="#586074">tabs</text>
<text x="1063.07" y="195.00" fill="#586074">·</text>
<text x="1081.73" y="195.00" fill="#586074">esc</text>
<text x="1119.06" y="195.00" fill="#586074">ba</text>
<text x="36.66" y="214.00" fill="#343c4e">────────────────────────────────────────────────────────────────────────────────────────────────────────────────────</text>
<text x="73.99" y="233.00" fill="#418fde" font-weight="bold">COD</text>
<text x="540.54" y="233.00" fill="#586074">stat</text>
<text x="1053.74" y="233.00" fill="#888888" font-weight="bold">ENG</text>
<text x="92.65" y="271.00" fill="#418fde" font-weight="bold">40.3</text>
<text x="531.20" y="271.00" fill="#848ea2">Possession</text>
<text x="1025.75" y="271.00" fill="#888888" font-weight="bold">59.7</text>
<text x="400.57" y="290.00" fill="#418fde">███████████████████</text>
<text x="577.86" y="290.00" fill="#586074">▏</text>
<text x="587.19" y="290.00" fill="#888888">██████████████████████████</text>
<text x="120.64" y="309.00" fill="#418fde" font-weight="bold">7</text>
<text x="549.87" y="309.00" fill="#848ea2">SHOTS</text>
<text x="1025.75" y="309.00" fill="#888888" font-weight="bold">16</text>
<text x="447.23" y="328.00" fill="#418fde">██████████████</text>
<text x="577.86" y="328.00" fill="#586074">▏</text>
<text x="587.19" y="328.00" fill="#888888">███████████████████████████████</text>
<text x="120.64" y="347.00" fill="#418fde" font-weight="bold">2</text>
<text x="540.54" y="347.00" fill="#848ea2">ON</text>
<text x="568.53" y="347.00" fill="#848ea2">GOAL</text>
<text x="1025.75" y="347.00" fill="#888888" font-weight="bold">7</text>
<text x="484.55" y="366.00" fill="#418fde">██████████</text>
<text x="577.86" y="366.00" fill="#586074">▏</text>
<text x="587.19" y="366.00" fill="#888888">███████████████████████████████████</text>
<text x="120.64" y="385.00" fill="#418fde" font-weight="bold">3</text>
<text x="521.87" y="385.00" fill="#848ea2">Corner</text>
<text x="587.19" y="385.00" fill="#848ea2">Kicks</text>
<text x="1025.75" y="385.00" fill="#888888" font-weight="bold">5</text>
<text x="419.23" y="404.00" fill="#418fde">█████████████████</text>
<text x="577.86" y="404.00" fill="#586074">▏</text>
<text x="587.19" y="404.00" fill="#888888">████████████████████████████</text>
<text x="111.31" y="423.00" fill="#418fde" font-weight="bold">12</text>
<text x="549.87" y="423.00" fill="#848ea2">Fouls</text>
<text x="1025.75" y="423.00" fill="#888888" font-weight="bold">10</text>
<text x="344.58" y="442.00" fill="#418fde">█████████████████████████</text>
<text x="577.86" y="442.00" fill="#586074">▏</text>
<text x="587.19" y="442.00" fill="#888888">████████████████████</text>
<text x="120.64" y="461.00" fill="#418fde" font-weight="bold">1</text>
<text x="521.87" y="461.00" fill="#848ea2">Yellow</text>
<text x="587.19" y="461.00" fill="#848ea2">Cards</text>
<text x="1025.75" y="461.00" fill="#888888" font-weight="bold">1</text>
<text x="363.25" y="480.00" fill="#418fde">███████████████████████</text>
<text x="577.86" y="480.00" fill="#586074">▏</text>
<text x="587.19" y="480.00" fill="#888888">██████████████████████</text>
<text x="120.64" y="499.00" fill="#418fde" font-weight="bold">0</text>
<text x="531.20" y="499.00" fill="#848ea2">Red</text>
<text x="568.53" y="499.00" fill="#848ea2">Cards</text>
<text x="1025.75" y="499.00" fill="#888888" font-weight="bold">0</text>
<text x="577.86" y="518.00" fill="#586074">▏</text>
<text x="120.64" y="537.00" fill="#418fde" font-weight="bold">4</text>
<text x="540.54" y="537.00" fill="#848ea2">Offsides</text>
<text x="1025.75" y="537.00" fill="#888888" font-weight="bold">0</text>
<text x="148.63" y="556.00" fill="#418fde">██████████████████████████████████████████████</text>
<text x="577.86" y="556.00" fill="#586074">▏</text>
<text x="120.64" y="575.00" fill="#418fde" font-weight="bold">5</text>
<text x="549.87" y="575.00" fill="#848ea2">Saves</text>
<text x="1025.75" y="575.00" fill="#888888" font-weight="bold">1</text>
<text x="223.28" y="594.00" fill="#418fde">██████████████████████████████████████</text>
<text x="577.86" y="594.00" fill="#586074">▏</text>
<text x="587.19" y="594.00" fill="#888888">███████</text>
<text x="27.33" y="784.00" fill="#586074">updated</text>
<text x="101.98" y="784.00" fill="#586074">11:37:43</text>
<text x="36.66" y="803.00" fill="#f0c458" font-weight="bold">←→</text>
<text x="73.99" y="803.00" fill="#848ea2">tabs</text>
<text x="139.30" y="803.00" fill="#f0c458" font-weight="bold">↑↓</text>
<text x="176.63" y="803.00" fill="#848ea2">scroll</text>
<text x="260.61" y="803.00" fill="#f0c458" font-weight="bold">esc</text>
<text x="307.26" y="803.00" fill="#848ea2">back</text>
<text x="372.58" y="803.00" fill="#f0c458" font-weight="bold">:</text>
<text x="400.57" y="803.00" fill="#848ea2">command</text>
<text x="811.13" y="803.00" fill="#586074">next:</text>
<text x="867.12" y="803.00" fill="#586074">SEN</text>
<text x="904.44" y="803.00" fill="#586074">v</text>
<text x="923.11" y="803.00" fill="#586074">BEL</text>
<text x="960.43" y="803.00" fill="#586074">·</text>
<text x="979.09" y="803.00" fill="#586074">kickoff</text>
<text x="1053.74" y="803.00" fill="#586074">in</text>
<text x="1081.73" y="803.00" fill="#586074">1h22m</text>
</svg>