<svg xmlns="http://www.w3.org/2000/svg" width="1156" height="826" viewBox="0 0 1156 826" font-family="'DejaVu Sans Mono','Menlo','Consolas','Cascadia Code',monospace" font-size="15.5">
<rect x="0" y="0" width="1156" height="826" rx="10" fill="#0c0e14"/>
<rect x="0" y="0" width="1156" height="30" rx="10" fill="#1b1f2a"/>
<rect x="0" y="20" width="1156" height="10" fill="#1b1f2a"/>
<circle cx="18" cy="15" r="6" fill="#ff5f56"/>
<circle cx="38" cy="15" r="6" fill="#ffbd2e"/>
<circle cx="58" cy="15" r="6" fill="#27c93f"/>
<text x="578" y="19" fill="#8a93a6" font-size="12.5" text-anchor="middle">wcup — Brazil</text>
<rect x="18.00" y="48.00" width="27.99" height="19.00" fill="#141821"/>
<rect x="55.32" y="48.00" width="1082.40" height="19.00" fill="#141821"/>
<rect x="18.00" y="67.00" width="1119.72" height="19.00" fill="#141821"/>
<rect x="18.00" y="105.00" width="1119.72" height="19.00" fill="#141821"/>
<rect x="18.00" y="124.00" width="1119.72" height="19.00" fill="#141821"/>
<rect x="45.99" y="162.00" width="1073.07" height="19.00" fill="#1e2430"/>
<rect x="18.00" y="770.00" width="1119.72" height="19.00" fill="#141821"/>
<rect x="18.00" y="789.00" width="9.33" height="19.00" fill="#141821"/>
<rect x="27.33" y="789.00" width="46.66" height="19.00" fill="#1e2430"/>
<rect x="73.99" y="789.00" width="65.32" height="19.00" fill="#141821"/>
<rect x="139.30" y="789.00" width="27.99" height="19.00" fill="#1e2430"/>
<rect x="167.30" y="789.00" width="65.32" height="19.00" fill="#141821"/>
<rect x="232.61" y="789.00" width="27.99" height="19.00" fill="#1e2430"/>
<rect x="260.61" y="789.00" width="93.31" height="19.00" fill="#141821"/>
<rect x="353.92" y="789.00" width="27.99" height="19.00" fill="#1e2430"/>
<rect x="381.91" y="789.00" width="755.81" height="19.00" fill="#141821"/>
<text x="45.99" y="62.00" fill="#5ad28c" text-anchor="middle">⚽</text>
<text x="64.66" y="62.00" fill="#5ece9b" font-weight="bold">F</text>
<text x="73.99" y="62.00" fill="#60cca3" font-weight="bold">I</text>
<text x="83.32" y="62.00" fill="#62caaa" font-weight="bold">F</text>
<text x="92.65" y="62.00" fill="#64c8b2" font-weight="bold">A</text>
<text x="111.31" y="62.00" fill="#68c4c1" font-weight="bold">W</text>
<text x="120.64" y="62.00" fill="#6ac2c9" font-weight="bold">O</text>
<text x="129.97" y="62.00" fill="#6cc0d1" font-weight="bold">R</text>
<text x="139.30" y="62.00" fill="#6ebed8" font-weight="bold">L</text>
<text x="148.63" y="62.00" fill="#70bce0" font-weight="bold">D</text>
<text x="167.30" y="62.00" fill="#74b8ef" font-weight="bold">C</text>
<text x="176.63" y="62.00" fill="#76b6f7" font-weight="bold">U</text>
<text x="185.96" y="62.00" fill="#78b4ff" font-weight="bold">P</text>
<text x="204.62" y="62.00" fill="#f0c458" font-weight="bold">2026</text>
<text x="251.27" y="62.00" fill="#586074">·</text>
<text x="269.94" y="62.00" fill="#586074">USA</text>
<text x="307.26" y="62.00" fill="#586074">·</text>
<text x="325.92" y="62.00" fill="#586074">CAN</text>
<text x="363.25" y="62.00" fill="#586074">·</text>
<text x="381.91" y="62.00" fill="#586074">MEX</text>
<text x="941.77" y="62.00" fill="#586074">○</text>
<text x="960.43" y="62.00" fill="#586074">no</text>
<text x="988.42" y="62.00" fill="#586074">live</text>
<text x="1044.41" y="62.00" fill="#848ea2">11:37:43</text>
<text x="27.33" y="81.00" fill="#848ea2">1</text>
<text x="45.99" y="81.00" fill="#848ea2">Live</text>
<text x="111.31" y="81.00" fill="#848ea2">2</text>
<text x="129.97" y="81.00" fill="#848ea2">Schedule</text>
<text x="232.61" y="81.00" fill="#848ea2">3</text>
<text x="251.27" y="81.00" fill="#848ea2">Groups</text>
<text x="335.25" y="81.00" fill="#848ea2">4</text>
<text x="353.92" y="81.00" fill="#848ea2">Bracket</text>
<text x="447.23" y="81.00" fill="#848ea2">5</text>
<text x="465.89" y="81.00" fill="#848ea2">Scorers</text>
<text x="979.09" y="81.00" fill="#586074">:help</text>
<text x="1044.41" y="81.00" fill="#586074">·</text>
<text x="1072.40" y="81.00" fill="#586074">q</text>
<text x="1091.07" y="81.00" fill="#586074">quit</text>
<text x="36.66" y="100.00" fill="#848ea2" font-style="italic">Team</text>
<text x="83.32" y="100.00" fill="#848ea2" font-style="italic">fixtures</text>
<text x="167.30" y="100.00" fill="#848ea2" font-style="italic">&amp;</text>
<text x="185.96" y="100.00" fill="#848ea2" font-style="italic">results</text>
<text x="36.66" y="119.00" fill="#fee000">███</text>
<text x="73.99" y="119.00" fill="#f5f7fc" font-weight="bold">Brazil</text>
<text x="148.63" y="119.00" fill="#fee000" font-weight="bold">BRA</text>
<text x="92.65" y="138.00" fill="#848ea2">P4</text>
<text x="129.97" y="138.00" fill="#848ea2">·</text>
<text x="157.97" y="138.00" fill="#848ea2">3W</text>
<text x="185.96" y="138.00" fill="#848ea2">1D</text>
<text x="213.95" y="138.00" fill="#848ea2">0L</text>
<text x="251.27" y="138.00" fill="#848ea2">·</text>
<text x="279.27" y="138.00" fill="#848ea2">9-2</text>
<text x="820.47" y="138.00" fill="#78b4ff">next:</text>
<text x="876.45" y="138.00" fill="#78b4ff">vs</text>
<text x="904.44" y="138.00" fill="#78b4ff">NOR</text>
<text x="951.10" y="138.00" fill="#78b4ff">Sun</text>
<text x="988.42" y="138.00" fill="#78b4ff">05</text>
<text x="1016.42" y="138.00" fill="#78b4ff">Jul</text>
<text x="1053.74" y="138.00" fill="#78b4ff">·</text>
<text x="1072.40" y="138.00" fill="#78b4ff">13:00</text>
<text x="36.66" y="157.00" fill="#343c4e">────────────────────────────────────────────────────────────────────────────────────────────────────────────────────</text>
<text x="36.66" y="176.00" fill="#f0c458" font-weight="bold">▸</text>
<text x="55.32" y="176.00" fill="#586074">Jun</text>
<text x="92.65" y="176.00" fill="#586074">13</text>
<text x="120.64" y="176.00" fill="#df2027">●</text>
<text x="139.30" y="176.00" fill="#dfe4ee">Morocco</text>
<text x="335.25" y="176.00" fill="#dfe4ee" font-weight="bold">1</text>
<text x="353.92" y="176.00" fill="#dfe4ee" font-weight="bold">-</text>
<text x="372.58" y="176.00" fill="#dfe4ee" font-weight="bold">1</text>
<text x="409.90" y="176.00" fill="#fee000">●</text>
<text x="428.56" y="176.00" fill="#dfe4ee">Brazil</text>
<text x="605.85" y="176.00" fill="#848ea2" font-weight="bold">FT</text>
<text x="708.49" y="176.00" fill="#586074">MetLife</text>
<text x="783.14" y="176.00" fill="#586074">Stadium</text>
<text x="55.32" y="195.00" fill="#586074">Jun</text>
<text x="92.65" y="195.00" fill="#586074">19</text>
<text x="120.64" y="195.00" fill="#0033a0">●</text>
<text x="139.30" y="195.00" fill="#dfe4ee">Haiti</text>
<text x="335.25" y="195.00" fill="#dfe4ee" font-weight="bold">0</text>
<text x="353.92" y="195.00" fill="#dfe4ee" font-weight="bold">-</text>
<text x="372.58" y="195.00" fill="#dfe4ee" font-weight="bold">3</text>
<text x="409.90" y="195.00" fill="#fee000">●</text>
<text x="428.56" y="195.00" fill="#f5f7fc" font-weight="bold">Brazil</text>
<text x="605.85" y="195.00" fill="#848ea2" font-weight="bold">FT</text>
<text x="708.49" y="195.00" fill="#586074">Lincoln</text>
<text x="783.14" y="195.00" fill="#586074">Financial</text>
<text x="876.45" y="195.00" fill="#586074">Field</text>
<text x="55.32" y="214.00" fill="#586074">Jun</text>
<text x="92.65" y="214.00" fill="#586074">24</text>
<text x="120.64" y="214.00" fill="#fee000">●</text>
<text x="139.30" y="214.00" fill="#f5f7fc" font-weight="bold">Brazil</text>
<text x="335.25" y="214.00" fill="#dfe4ee" font-weight="bold">3</text>
<text x="353.92" y="214.00" fill="#dfe4ee" font-weight="bold">-</text>
<text x="372.58" y="214.00" fill="#dfe4ee" font-weight="bold">0</text>
<text x="409.90" y="214.00" fill="#1a2d69">●</text>
<text x="428.56" y="214.00" fill="#dfe4ee">Scotland</text>
<text x="605.85" y="214.00" fill="#848ea2" font-weight="bold">FT</text>
<text x="708.49" y="214.00" fill="#586074">Hard</text>
<text x="755.15" y="214.00" fill="#586074">Rock</text>
<text x="801.80" y="214.00" fill="#586074">Stadium</text>
<text x="55.32" y="233.00" fill="#586074">Jun</text>
<text x="92.65" y="233.00" fill="#586074">29</text>
<text x="120.64" y="233.00" fill="#000555">●</text>
<text x="139.30" y="233.00" fill="#dfe4ee">Japan</text>
<text x="335.25" y="233.00" fill="#dfe4ee" font-weight="bold">1</text>
<text x="353.92" y="233.00" fill="#dfe4ee" font-weight="bold">-</text>
<text x="372.58" y="233.00" fill="#dfe4ee" font-weight="bold">2</text>
<text x="409.90" y="233.00" fill="#fee000">●</text>
<text x="428.56" y="233.00" fill="#f5f7fc" font-weight="bold">Brazil</text>
<text x="605.85" y="233.00" fill="#848ea2" font-weight="bold">FT</text>
<text x="708.49" y="233.00" fill="#586074">NRG</text>
<text x="745.82" y="233.00" fill="#586074">Stadium</text>
<text x="55.32" y="252.00" fill="#586074">Jul</text>
<text x="92.65" y="252.00" fill="#586074">05</text>
<text x="120.64" y="252.00" fill="#c8102e">●</text>
<text x="139.30" y="252.00" fill="#dfe4ee">Norway</text>
<text x="353.92" y="252.00" fill="#dfe4ee" font-weight="bold">v</text>
<text x="409.90" y="252.00" fill="#fee000">●</text>
<text x="428.56" y="252.00" fill="#dfe4ee">Brazil</text>
<text x="605.85" y="252.00" fill="#586074">—</text>
<text x="708.49" y="252.00" fill="#586074">MetLife</text>
<text x="783.14" y="252.00" fill="#586074">Stadium</text>
<text x="27.33" y="784.00" fill="#586074">updated</text>
<text x="101.98" y="784.00" fill="#586074">11:37:42</text>
<text x="36.66" y="803.00" fill="#f0c458" font-weight="bold">esc</text>
<text x="83.32" y="803.00" fill="#848ea2">back</text>
<text x="148.63" y="803.00" fill="#f0c458" font-weight="bold">⇥</text>
<text x="176.63" y="803.00" fill="#848ea2">view</text>
<text x="241.94" y="803.00" fill="#f0c458" font-weight="bold">:</text>
<text x="269.94" y="803.00" fill="#848ea2">command</text>
<text x="363.25" y="803.00" fill="#f0c458" font-weight="bold">q</text>
<text x="391.24" y="803.00" fill="#848ea2">quit</text>
<text x="811.13" y="803.00" fill="#586074">next:</text>
<text x="867.12" y="803.00" fill="#586074">SEN</text>
<text x="904.44" y="803.00" fill="#586074">v</text>
<text x="923.11" y="803.00" fill="#586074">BEL</text>
<text x="960.43" y="803.00" fill="#586074">·</text>
<text x="979.09" y="803.00" fill="#586074">kickoff</text>
<text x="1053.74" y="803.00" fill="#586074">in</text>
<text x="1081.73" y="803.00" fill="#586074">1h22m</text>
</svg>